<?xml version="1.0" standalone="no"?>
<!DOCTYPE svg PUBLIC "-//W3C//DTD SVG 20010904//EN"
 "http://www.w3.org/TR/2001/REC-SVG-20010904/DTD/svg10.dtd">
<svg version="1.0" xmlns="http://www.w3.org/2000/svg"
 width="700.000000pt" height="700.000000pt" viewBox="0 0 700.000000 700.000000"
 preserveAspectRatio="xMidYMid meet">
<metadata>
Created by potrace 1.14, written by Peter Selinger 2001-2017
</metadata>
<g transform="translate(0.000000,700.000000) scale(0.100000,-0.100000)"
fill="#000000" stroke="none">
<path d="M3329 5875 c-2 -2 -31 -6 -64 -9 -97 -9 -171 -20 -269 -42 -39 -8
-75 -17 -81 -18 -5 -2 -23 -6 -40 -11 -137 -36 -315 -105 -450 -174 -453 -234
-797 -577 -1024 -1025 -69 -136 -87 -176 -117 -263 l-18 -51 -40 31 c-44 35
-316 304 -382 377 -68 77 -183 220 -223 279 -55 81 -121 222 -121 259 0 29 4
33 48 46 34 10 85 13 182 11 154 -4 185 -8 330 -36 125 -25 168 -25 223 0 112
50 156 178 99 291 -38 77 -105 108 -297 139 -176 28 -226 33 -380 33 -364 1
-577 -127 -629 -379 -27 -129 0 -269 85 -436 149 -293 428 -601 929 -1027 47
-39 96 -82 110 -93 14 -12 45 -37 70 -56 25 -19 47 -37 50 -40 3 -4 39 -32 80
-63 42 -32 84 -65 95 -75 22 -20 314 -232 385 -279 25 -17 101 -69 170 -115
294 -201 697 -449 995 -615 83 -46 157 -88 165 -94 56 -35 318 -173 560 -294
574 -286 1024 -475 1520 -636 124 -41 230 -75 235 -76 6 -1 66 -16 135 -33
309 -77 601 -110 790 -89 210 23 374 121 445 265 15 30 29 67 32 82 40 211
-15 400 -195 666 -63 91 -50 75 -160 205 -105 124 -116 134 -165 155 -143 59
-292 -55 -289 -222 1 -55 22 -93 92 -173 69 -78 191 -240 210 -278 8 -15 19
-34 26 -42 18 -23 64 -146 64 -170 0 -40 -57 -54 -220 -54 -80 -1 -165 2 -190
6 -130 20 -173 28 -257 47 -125 28 -253 65 -505 145 -20 6 -40 14 -44 18 -3 4
11 29 33 55 85 104 192 263 257 383 31 57 56 105 56 107 0 2 9 22 20 46 53
116 131 348 146 432 2 16 7 38 10 47 6 22 12 53 19 103 3 22 8 47 10 55 9 36
18 185 19 315 1 204 -9 305 -49 510 -34 172 -117 403 -213 588 -66 127 -199
335 -242 377 -3 3 -29 34 -59 70 -136 162 -365 359 -558 479 -186 115 -439
222 -658 278 -119 30 -112 29 -245 49 -91 15 -501 30 -511 19z"/>
<path d="M1222 3091 c-42 -39 -44 -64 -11 -191 11 -41 24 -86 28 -100 41 -115
67 -183 89 -230 13 -30 32 -73 42 -95 39 -89 204 -356 255 -411 5 -7 26 -31
45 -55 45 -58 263 -276 319 -320 24 -19 48 -39 55 -44 6 -6 27 -22 46 -35 19
-13 37 -27 40 -30 13 -15 185 -119 275 -165 147 -77 336 -150 475 -186 86 -22
209 -48 255 -53 28 -3 66 -9 85 -11 96 -15 373 -21 445 -11 17 3 59 7 95 10
75 7 208 29 272 46 23 7 52 14 63 16 98 17 149 43 171 85 18 36 18 53 -2 95
-17 35 -50 55 -269 154 -228 103 -646 310 -850 422 -103 57 -442 248 -475 269
-8 5 -73 43 -145 85 -238 140 -713 446 -935 603 -230 162 -262 181 -299 181
-27 0 -45 -8 -69 -29z"/>
</g>
</svg>
